<svg width="36" height="37" viewBox="0 0 36 37" fill="none" xmlns="http://www.w3.org/2000/svg">
<path d="M14.8334 35.7083C16.5593 35.7083 17.9584 34.3092 17.9584 32.5833C17.9584 30.8575 16.5593 29.4583 14.8334 29.4583C13.1075 29.4583 11.7084 30.8575 11.7084 32.5833C11.7084 34.3092 13.1075 35.7083 14.8334 35.7083Z" stroke="white" stroke-width="2.08333"/>
<path d="M29.4167 35.7083C31.1426 35.7083 32.5417 34.3092 32.5417 32.5833C32.5417 30.8575 31.1426 29.4583 29.4167 29.4583C27.6908 29.4583 26.2917 30.8575 26.2917 32.5833C26.2917 34.3092 27.6908 35.7083 29.4167 35.7083Z" stroke="white" stroke-width="2.08333"/>
<path d="M1.29169 1.33334H5.45835L12.7584 24.25H29.4167" stroke="white" stroke-width="2.08333" stroke-linecap="round" stroke-linejoin="round"/>
<path d="M11.1333 19.0417L7.125 6.54169H33.1812C33.3464 6.54148 33.5092 6.58054 33.6563 6.65565C33.8034 6.73076 33.9305 6.83976 34.0271 6.97366C34.1238 7.10755 34.1872 7.26252 34.2122 7.42576C34.2372 7.589 34.223 7.75584 34.1708 7.91252L30.6979 18.3292C30.6289 18.5365 30.4963 18.7169 30.3191 18.8448C30.1419 18.9726 29.929 19.0415 29.7104 19.0417H11.1333Z" stroke="white" stroke-width="2.08333" stroke-linecap="round" stroke-linejoin="round"/>
</svg>
